<svg width="109" height="21" viewBox="0 0 109 21" fill="none" xmlns="http://www.w3.org/2000/svg">
<path d="M3.675 16V4.366H0.273V1.552H10.374V4.366H6.951V16H3.675ZM19.5208 11.485H13.8718C13.8718 12.241 13.9138 12.766 13.9978 13.06C14.0818 13.34 14.2778 13.529 14.5858 13.627C14.9078 13.725 15.4678 13.774 16.2658 13.774C16.8678 13.774 17.8408 13.718 19.1848 13.606V15.832C18.7648 15.93 18.2118 16.007 17.5258 16.063C16.8538 16.133 16.1958 16.168 15.5518 16.168C14.1098 16.168 13.0528 15.986 12.3808 15.622C11.7228 15.258 11.3028 14.712 11.1208 13.984C10.9388 13.256 10.8478 12.15 10.8478 10.666C10.8478 9.21 10.9388 8.111 11.1208 7.369C11.3028 6.627 11.7088 6.067 12.3388 5.689C12.9688 5.311 13.9628 5.122 15.3208 5.122C16.6648 5.122 17.6308 5.304 18.2188 5.668C18.8068 6.018 19.1708 6.55 19.3108 7.264C19.4508 7.978 19.5208 9.112 19.5208 10.666V11.485ZM15.2788 7.453C14.8448 7.453 14.5298 7.502 14.3338 7.6C14.1518 7.698 14.0258 7.901 13.9558 8.209C13.8998 8.503 13.8718 9 13.8718 9.7H16.6438C16.6438 8.986 16.6088 8.482 16.5388 8.188C16.4688 7.88 16.3428 7.684 16.1608 7.6C15.9788 7.502 15.6848 7.453 15.2788 7.453ZM23.8288 16.168C22.8628 16.168 22.1558 15.916 21.7078 15.412C21.2738 14.894 21.0568 14.068 21.0568 12.934C21.0568 12.108 21.1478 11.457 21.3298 10.981C21.5118 10.505 21.8198 10.162 22.2538 9.952C22.7018 9.742 23.3318 9.637 24.1438 9.637C24.7458 9.637 25.5928 9.665 26.6848 9.721V9.28C26.6848 8.706 26.6288 8.307 26.5168 8.083C26.4188 7.845 26.2228 7.698 25.9288 7.642C25.6348 7.572 25.1238 7.537 24.3958 7.537C23.4018 7.537 22.4848 7.586 21.6448 7.684V5.458C22.8348 5.234 24.0738 5.122 25.3618 5.122C26.6218 5.122 27.5598 5.269 28.1758 5.563C28.8058 5.857 29.2188 6.305 29.4148 6.907C29.6248 7.495 29.7298 8.356 29.7298 9.49V16H26.8318L26.7478 14.74H26.5798C26.2998 15.286 25.9218 15.664 25.4458 15.874C24.9838 16.07 24.4448 16.168 23.8288 16.168ZM25.2358 13.795C25.5578 13.795 25.8098 13.76 25.9918 13.69C26.1878 13.62 26.3418 13.494 26.4538 13.312C26.6078 13.032 26.6848 12.556 26.6848 11.884V11.422H25.0678C24.7458 11.422 24.5078 11.45 24.3538 11.506C24.2138 11.562 24.1158 11.681 24.0598 11.863C24.0038 12.031 23.9758 12.297 23.9758 12.661C23.9758 12.983 24.0038 13.221 24.0598 13.375C24.1158 13.529 24.2278 13.641 24.3958 13.711C24.5778 13.767 24.8578 13.795 25.2358 13.795ZM42.9393 10.267C42.9393 9.427 42.9113 8.839 42.8553 8.503C42.8133 8.167 42.7153 7.957 42.5613 7.873C42.4073 7.775 42.1413 7.726 41.7633 7.726C41.3713 7.726 41.0843 7.796 40.9023 7.936C40.7343 8.076 40.6223 8.328 40.5663 8.692C40.5243 9.056 40.5033 9.644 40.5033 10.456V16H37.4793V10.267C37.4793 9.427 37.4513 8.839 37.3953 8.503C37.3533 8.167 37.2553 7.957 37.1013 7.873C36.9473 7.775 36.6813 7.726 36.3033 7.726C35.9113 7.726 35.6243 7.803 35.4423 7.957C35.2743 8.097 35.1623 8.349 35.1063 8.713C35.0643 9.063 35.0433 9.644 35.0433 10.456V16H31.9983V5.29H34.8963L34.9803 6.571H35.1273C35.3793 6.053 35.7293 5.682 36.1773 5.458C36.6253 5.234 37.1713 5.122 37.8153 5.122C38.5433 5.122 39.1033 5.241 39.4953 5.479C39.8873 5.703 40.1603 6.067 40.3143 6.571H40.5033C40.9793 5.605 41.8823 5.122 43.2123 5.122C43.9683 5.122 44.5423 5.269 44.9343 5.563C45.3403 5.843 45.6133 6.263 45.7533 6.823C45.9073 7.383 45.9843 8.139 45.9843 9.091V16H42.9393V10.267ZM48.345 16V13.102H51.621V16H48.345ZM53.9411 3.022V0.396999H57.0491V3.022H53.9411ZM53.9621 16V5.29H57.0281V16H53.9621ZM60.1967 16V7.705H58.5377V5.29H60.1967V2.182H63.2627V5.29H65.2997V7.705H63.2627V16H60.1967ZM71.6038 1.552H77.7568C79.0448 1.552 80.0038 1.853 80.6338 2.455C81.2778 3.057 81.5998 3.967 81.5998 5.185C81.5998 6.207 81.4178 6.984 81.0538 7.516C80.6898 8.048 80.1228 8.405 79.3528 8.587V8.671C80.1928 8.867 80.7948 9.224 81.1588 9.742C81.5368 10.26 81.7258 11.065 81.7258 12.157C81.7258 13.417 81.4178 14.376 80.8018 15.034C80.1858 15.678 79.1708 16 77.7568 16H71.6038V1.552ZM76.7068 7.369C77.1548 7.369 77.4908 7.327 77.7148 7.243C77.9388 7.159 78.0928 7.012 78.1768 6.802C78.2608 6.578 78.3028 6.249 78.3028 5.815C78.3028 5.353 78.2608 5.017 78.1768 4.807C78.1068 4.597 77.9598 4.457 77.7358 4.387C77.5258 4.303 77.1828 4.261 76.7068 4.261H74.8378V7.369H76.7068ZM76.7908 13.291C77.2668 13.291 77.6098 13.249 77.8198 13.165C78.0438 13.081 78.1978 12.934 78.2818 12.724C78.3658 12.5 78.4078 12.15 78.4078 11.674C78.4078 11.198 78.3658 10.848 78.2818 10.624C78.1978 10.4 78.0438 10.246 77.8198 10.162C77.5958 10.078 77.2528 10.036 76.7908 10.036H74.8378V13.291H76.7908ZM83.7395 16V0.396999H86.8055V16H83.7395ZM93.292 16.168C91.878 16.168 90.856 16.014 90.226 15.706C89.61 15.398 89.218 14.887 89.05 14.173C88.882 13.445 88.798 12.269 88.798 10.645C88.798 9.021 88.882 7.852 89.05 7.138C89.218 6.41 89.61 5.892 90.226 5.584C90.856 5.276 91.878 5.122 93.292 5.122C94.706 5.122 95.721 5.276 96.337 5.584C96.953 5.892 97.345 6.41 97.513 7.138C97.695 7.852 97.786 9.021 97.786 10.645C97.786 12.255 97.695 13.424 97.513 14.152C97.345 14.866 96.953 15.384 96.337 15.706C95.721 16.014 94.706 16.168 93.292 16.168ZM93.292 13.753C93.796 13.753 94.139 13.69 94.321 13.564C94.503 13.438 94.615 13.186 94.657 12.808C94.713 12.43 94.741 11.709 94.741 10.645C94.741 9.581 94.713 8.86 94.657 8.482C94.615 8.09 94.503 7.838 94.321 7.726C94.139 7.6 93.796 7.537 93.292 7.537C92.788 7.537 92.438 7.6 92.242 7.726C92.06 7.838 91.948 8.083 91.906 8.461C91.864 8.839 91.843 9.567 91.843 10.645C91.843 11.723 91.864 12.451 91.906 12.829C91.948 13.193 92.06 13.438 92.242 13.564C92.438 13.69 92.788 13.753 93.292 13.753ZM103.6 20.284C102.998 20.284 102.375 20.256 101.731 20.2C101.101 20.158 100.59 20.102 100.198 20.032V17.827C100.814 17.855 101.696 17.869 102.844 17.869C103.656 17.869 104.223 17.813 104.545 17.701C104.867 17.603 105.07 17.393 105.154 17.071C105.252 16.763 105.301 16.21 105.301 15.412V14.656H105.133C104.895 15.132 104.559 15.468 104.125 15.664C103.705 15.86 103.187 15.958 102.571 15.958C101.773 15.958 101.15 15.797 100.702 15.475C100.254 15.153 99.9316 14.607 99.7356 13.837C99.5396 13.053 99.4416 11.961 99.4416 10.561C99.4416 9.133 99.5396 8.027 99.7356 7.243C99.9456 6.459 100.275 5.913 100.723 5.605C101.171 5.283 101.787 5.122 102.571 5.122C103.901 5.122 104.776 5.605 105.196 6.571H105.364L105.448 5.29H108.346V14.74C108.346 16.182 108.248 17.274 108.052 18.016C107.87 18.758 107.443 19.318 106.771 19.696C106.099 20.088 105.042 20.284 103.6 20.284ZM103.894 13.396C104.258 13.396 104.531 13.347 104.713 13.249C104.895 13.151 105.028 12.969 105.112 12.703C105.196 12.493 105.245 12.227 105.259 11.905C105.287 11.583 105.301 11.135 105.301 10.561C105.301 10.029 105.287 9.609 105.259 9.301C105.245 8.979 105.203 8.72 105.133 8.524C105.049 8.216 104.916 8.006 104.734 7.894C104.552 7.782 104.272 7.726 103.894 7.726C103.418 7.726 103.089 7.782 102.907 7.894C102.739 7.992 102.627 8.223 102.571 8.587C102.515 8.951 102.487 9.609 102.487 10.561C102.487 11.499 102.515 12.15 102.571 12.514C102.627 12.878 102.746 13.116 102.928 13.228C103.11 13.34 103.432 13.396 103.894 13.396Z" fill="white"/>
</svg>
